<svg width="46" height="35" viewBox="0 0 46 35" fill="none" xmlns="http://www.w3.org/2000/svg">
<path d="M38.3005 2.93124C35.3737 1.56187 32.2443 0.566675 28.9725 0C28.5707 0.726458 28.1013 1.70356 27.7776 2.48084C24.2997 1.9578 20.8537 1.9578 17.4397 2.48084C17.1161 1.70356 16.636 0.726458 16.2306 0C12.9553 0.566675 9.82227 1.56553 6.89549 2.93849C0.99215 11.8592 -0.608149 20.5584 0.192002 29.134C4.10741 32.0579 7.90191 33.8341 11.6324 34.9964C12.5534 33.7287 13.3749 32.3812 14.0826 30.961C12.7348 30.4489 11.4439 29.8169 10.2241 29.0832C10.5477 28.8434 10.8643 28.5928 11.1701 28.3349C18.6097 31.8146 26.693 31.8146 34.0437 28.3349C34.3531 28.5928 34.6696 28.8434 34.9896 29.0832C33.7663 29.8205 32.4719 30.4525 31.1241 30.9647C31.8318 32.3812 32.6497 33.7324 33.5743 35C37.3084 33.8377 41.1064 32.0616 45.0218 29.134C45.9606 19.1927 43.4179 10.5734 38.3005 2.93124ZM15.0961 23.8601C12.8628 23.8601 11.0314 21.7751 11.0314 19.2362C11.0314 16.6973 12.8237 14.6088 15.0961 14.6088C17.3686 14.6088 19.2 16.6937 19.1609 19.2362C19.1645 21.7751 17.3686 23.8601 15.0961 23.8601ZM30.1177 23.8601C27.8844 23.8601 26.0529 21.7751 26.0529 19.2362C26.0529 16.6973 27.8452 14.6088 30.1177 14.6088C32.3901 14.6088 34.2215 16.6937 34.1824 19.2362C34.1824 21.7751 32.3901 23.8601 30.1177 23.8601Z" fill="#5865F2"/>
</svg>
