<svg width="24" height="35" viewBox="0 0 24 35" fill="none" xmlns="http://www.w3.org/2000/svg">
<g clip-path="url(#clip0_346_68)">
<path d="M5.84996 35C9.07778 35 11.6975 32.3867 11.6975 29.1667V23.3334H5.84996C2.62213 23.3334 0.00244141 25.9467 0.00244141 29.1667C0.00244141 32.3867 2.62213 35 5.84996 35Z" fill="#0ACF83"/>
<path d="M0.00244141 17.5C0.00244141 14.28 2.62213 11.6666 5.84996 11.6666H11.6975V23.3333H5.84996C2.62213 23.3333 0.00244141 20.72 0.00244141 17.5Z" fill="#A259FF"/>
<path d="M0.00244141 5.83333C0.00244141 2.61333 2.62213 0 5.84996 0H11.6975V11.6667H5.84996C2.62213 11.6667 0.00244141 9.05333 0.00244141 5.83333Z" fill="#F24E1E"/>
<path d="M11.6973 0H17.5448C20.7726 0 23.3923 2.61333 23.3923 5.83333C23.3923 9.05333 20.7726 11.6667 17.5448 11.6667H11.6973V0Z" fill="#FF7262"/>
<path d="M23.3923 17.5C23.3923 20.72 20.7726 23.3333 17.5448 23.3333C14.317 23.3333 11.6973 20.72 11.6973 17.5C11.6973 14.28 14.317 11.6666 17.5448 11.6666C20.7726 11.6666 23.3923 14.28 23.3923 17.5Z" fill="#1ABCFE"/>
</g>
<defs>
<clipPath id="clip0_346_68">
<rect width="23.3947" height="35" fill="white"/>
</clipPath>
</defs>
</svg>
