<svg width="36" height="35" viewBox="0 0 36 35" fill="none" xmlns="http://www.w3.org/2000/svg">
<path fill-rule="evenodd" clip-rule="evenodd" d="M17.9999 8.51061C12.8884 8.51061 8.74462 12.6544 8.74462 17.7659C8.74462 22.8775 12.8884 27.0212 17.9999 27.0212C23.1115 27.0212 27.2553 22.8775 27.2553 17.7659C27.2553 12.6544 23.1115 8.51061 17.9999 8.51061ZM6.89355 17.7659C6.89355 11.6321 11.8661 6.65955 17.9999 6.65955C24.1338 6.65955 29.1063 11.6321 29.1063 17.7659C29.1063 23.8998 24.1338 28.8723 17.9999 28.8723C11.8661 28.8723 6.89355 23.8998 6.89355 17.7659Z" fill="#DCC4C4"/>
<path fill-rule="evenodd" clip-rule="evenodd" d="M15.7708 27.7023C15.6814 27.5867 15.6814 26.5573 15.7708 24.614C14.8121 24.6471 14.2063 24.5805 13.9536 24.4144C13.5745 24.1651 13.1949 23.3963 12.8582 22.8545C12.5214 22.3127 11.7739 22.227 11.4721 22.1059C11.1703 21.9848 11.0945 21.491 12.3038 21.8644C13.5131 22.2378 13.5721 23.2547 13.9536 23.4924C14.3351 23.7302 15.2471 23.6262 15.6605 23.4357C16.0739 23.2452 16.0435 22.536 16.1172 22.2551C16.2104 21.9929 15.8819 21.9347 15.8747 21.9326C15.4711 21.9326 13.3509 21.4715 12.7685 19.4183C12.1862 17.3652 12.9364 16.0232 13.3366 15.4463C13.6033 15.0617 13.5797 14.2421 13.2658 12.9873C14.4058 12.8416 15.2856 13.2004 15.9051 14.0639C15.9057 14.0688 16.7173 13.5813 18 13.5813C19.2827 13.5813 19.7377 13.9784 20.0889 14.0639C20.4401 14.1493 20.721 12.5525 22.8899 12.9873C22.437 13.8773 22.0578 14.9894 22.3473 15.4463C22.6367 15.9033 23.7726 17.3563 23.0749 19.4183C22.6097 20.793 21.6952 21.6311 20.3315 21.9326C20.1751 21.9824 20.0969 22.063 20.0969 22.174C20.0969 22.3407 20.3083 22.3589 20.6129 23.1394C20.8159 23.6598 20.8306 25.1461 20.6569 27.5983C20.2168 27.7104 19.8745 27.7856 19.6298 27.824C19.196 27.8922 18.725 27.9304 18.2622 27.9452C17.7994 27.9599 17.6387 27.9583 16.9989 27.8987C16.5724 27.859 16.163 27.7935 15.7708 27.7023Z" fill="#DCC4C4"/>
<rect x="1.5" y="1.5" width="33" height="32" rx="9.5" stroke="#DCC4C4" stroke-width="3"/>
</svg>
