<svg width="656" height="649" viewBox="0 0 656 649" fill="none" xmlns="http://www.w3.org/2000/svg">
<mask id="mask0_360_111" style="mask-type:luminance" maskUnits="userSpaceOnUse" x="0" y="0" width="656" height="633">
<path d="M656 0H0V470.892H117.555C142.732 564.23 227.402 632.88 328 632.88C428.598 632.88 513.268 564.23 538.445 470.892H656V0Z" fill="white"/>
</mask>
<g mask="url(#mask0_360_111)">
<path d="M328 631.039C448.443 631.039 546.082 533.467 546.082 413.105C546.082 292.743 448.443 195.171 328 195.171C207.557 195.171 109.918 292.743 109.918 413.105C109.918 533.467 207.557 631.039 328 631.039Z" fill="#FF0000"/>
<path d="M400.16 497.383C459.698 497.383 447.392 572.274 447.963 655.556H400.16V497.383Z" fill="#D8985D"/>
<path d="M415.077 545.337L400.16 570.333L407.625 655.556H428.46C428.965 537.379 415.077 545.337 415.077 545.337Z" fill="#C6854E"/>
<path d="M153.012 327.778C153.012 231.201 231.358 152.908 328 152.908C424.642 152.908 502.988 231.201 502.988 327.778C503.013 353.8 497.214 379.498 486.017 402.991C474.82 426.484 458.507 447.177 438.273 463.556C434.683 466.476 430.979 469.249 427.161 471.875C387.696 496.911 337.84 496.911 292.832 492.906C288.463 492.25 284.107 491.424 279.784 490.474C262.511 486.671 245.79 480.804 230.341 472.249C226.523 469.898 222.821 467.359 219.235 464.632C215.631 461.889 212.171 458.961 208.87 455.86C205.748 452.963 202.732 449.951 199.824 446.827C169.686 414.507 152.954 371.955 153.012 327.778Z" fill="#D8985D"/>
<path d="M176.864 415.937C177.323 416.724 177.776 417.51 178.248 418.284C178.53 418.756 178.826 419.215 179.121 419.687C179.554 420.388 179.987 421.09 180.433 421.778C180.748 422.276 181.089 422.761 181.391 423.246C181.824 423.902 182.257 424.557 182.703 425.213C183.037 425.711 183.359 426.209 183.726 426.708C184.159 427.363 184.592 427.966 185.038 428.596C185.392 429.1 185.76 429.599 186.12 430.103C186.481 430.608 186.999 431.316 187.432 431.919C187.865 432.522 188.187 432.922 188.567 433.421C188.948 433.919 189.466 434.601 189.925 435.191C190.384 435.781 190.706 436.18 191.099 436.672C191.493 437.164 192.024 437.826 192.49 438.396C192.956 438.967 193.297 439.373 193.704 439.858C194.11 440.343 194.648 440.986 195.127 441.543C195.606 442.1 195.96 442.507 196.38 442.985L197.837 444.624C198.263 445.103 198.696 445.568 199.149 446.04C199.713 446.656 200.283 447.266 200.854 447.869L201.648 448.708C202.494 449.587 203.347 450.465 204.213 451.33L204.383 451.507C205.23 452.346 206.089 453.179 206.948 454.005L207.985 454.988C208.608 455.572 209.231 456.155 209.861 456.732L210.622 457.427C211.278 458.043 211.993 458.646 212.682 459.249C214.825 461.116 217.011 462.905 219.242 464.618C222.824 467.346 226.526 469.885 230.348 472.236C245.797 480.758 262.492 486.658 279.791 490.46C284.114 491.411 288.469 492.23 292.838 492.893C320.456 495.351 349.91 496.288 377.646 490.873C333.543 477.9 121.747 401.685 255.053 168.792C253.269 169.612 251.51 170.458 249.765 171.336L249.378 171.526C248.578 171.926 247.778 172.339 246.984 172.759L246.328 173.106C243.861 174.417 241.421 175.774 239.027 177.19L238.436 177.538C237.675 177.99 236.921 178.449 236.167 178.914L235.596 179.268C233.252 180.732 230.945 182.247 228.675 183.811L227.967 184.303C227.252 184.801 226.55 185.299 225.848 185.804L225.415 186.112C223.985 187.157 222.572 188.214 221.177 189.285L220.77 189.6C220.114 190.111 219.458 190.636 218.802 191.167L218.035 191.783C217.379 192.314 216.723 192.845 216.067 193.389C214.683 194.536 213.318 195.716 211.973 196.909L211.225 197.565L209.461 199.171L208.608 199.944C206.736 201.693 204.906 203.478 203.117 205.3L202.212 206.225C201.694 206.762 201.176 207.3 200.664 207.844C200.362 208.165 200.06 208.499 199.765 208.814C198.864 209.776 197.976 210.75 197.102 211.738C196.807 212.072 196.505 212.393 196.21 212.747C195.744 213.278 195.285 213.816 194.825 214.354L193.835 215.527C193.389 216.058 192.943 216.589 192.523 217.127C192.169 217.559 191.814 217.998 191.467 218.438C190.765 219.31 190.076 220.181 189.394 221.06C189.04 221.519 188.685 221.978 188.338 222.443C187.99 222.909 187.55 223.485 187.163 224.016C186.776 224.547 186.461 224.967 186.12 225.446C185.779 225.924 185.379 226.462 185.018 226.973C184.397 227.847 183.785 228.732 183.181 229.628C182.853 230.107 182.525 230.598 182.204 231.083C181.883 231.568 181.482 232.172 181.128 232.722L180.151 234.237L179.049 236.013C178.767 236.465 178.485 236.918 178.209 237.37C177.625 238.327 177.061 239.291 176.497 240.255L175.697 241.671C175.342 242.293 174.988 242.923 174.64 243.552C174.378 244.031 174.116 244.509 173.86 244.988C173.44 245.768 173.027 246.554 172.613 247.341L171.826 248.875C171.406 249.714 170.986 250.547 170.573 251.392C170.357 251.845 170.134 252.304 169.917 252.763C169.576 253.477 169.261 254.198 168.913 254.919C168.71 255.352 168.513 255.785 168.317 256.23C167.831 257.31 167.357 258.402 166.893 259.508C166.749 259.849 166.611 260.197 166.467 260.537C166.119 261.37 165.778 262.203 165.443 263.042C165.266 263.481 165.096 263.92 164.925 264.353C164.597 265.179 164.269 266.011 163.974 266.844C163.836 267.204 163.698 267.565 163.567 267.926C163.156 269.075 162.751 270.224 162.353 271.374L161.986 272.488C161.697 273.362 161.415 274.236 161.14 275.11L160.746 276.363C160.438 277.372 160.136 278.382 159.848 279.398C159.782 279.614 159.716 279.83 159.657 280.053C159.316 281.26 158.988 282.47 158.673 283.685C158.568 284.072 158.477 284.465 158.378 284.852C158.149 285.763 157.925 286.674 157.722 287.592L157.447 288.739C157.165 289.985 156.889 291.231 156.633 292.483L156.535 292.987C156.312 294.102 156.093 295.216 155.879 296.331C155.807 296.731 155.741 297.124 155.669 297.524C155.498 298.501 155.334 299.491 155.183 300.474C155.131 300.808 155.072 301.129 155.026 301.47C154.829 302.749 154.652 304.034 154.481 305.325L154.383 306.177C154.252 307.22 154.134 308.268 154.022 309.317C153.983 309.711 153.937 310.104 153.898 310.504C153.793 311.605 153.694 312.713 153.602 313.821C153.602 314.05 153.563 314.273 153.55 314.477C153.454 315.788 153.368 317.11 153.294 318.443C153.294 318.79 153.294 319.144 153.248 319.492C153.204 320.523 153.165 321.552 153.13 322.579C153.13 322.966 153.13 323.353 153.13 323.74C153.13 325.083 153.078 326.434 153.078 327.784C153.078 327.784 153.078 327.83 153.078 327.85C153.078 329.305 153.078 330.747 153.13 332.19C153.13 332.688 153.169 333.186 153.183 333.684C153.215 334.648 153.248 335.612 153.294 336.575C153.294 337.159 153.366 337.736 153.399 338.319C153.452 339.191 153.497 340.063 153.563 340.941C153.609 341.597 153.668 342.18 153.721 342.797C153.793 343.623 153.858 344.449 153.944 345.268C154.003 345.924 154.081 346.54 154.147 347.176C154.239 347.969 154.324 348.769 154.422 349.562C154.501 350.217 154.593 350.873 154.678 351.496C154.783 352.269 154.888 353.049 155.006 353.823C155.105 354.479 155.21 355.134 155.315 355.79C155.433 356.55 155.557 357.317 155.689 358.078C155.807 358.733 155.925 359.389 156.049 360.044C156.187 360.798 156.331 361.552 156.476 362.299C156.62 363.047 156.745 363.61 156.882 364.266C157.04 365.013 157.197 365.754 157.368 366.495C157.538 367.236 157.657 367.806 157.814 368.416C157.985 369.156 158.168 369.891 158.352 370.618C158.536 371.346 158.673 371.897 158.837 372.526C159.034 373.26 159.231 373.988 159.434 374.716C159.605 375.371 159.782 375.974 159.966 376.597C160.176 377.325 160.392 378.046 160.622 378.767C160.851 379.488 161.002 380.006 161.199 380.629C161.396 381.251 161.658 382.064 161.894 382.779C162.13 383.493 162.301 384.005 162.511 384.614C162.76 385.329 163.009 386.044 163.265 386.758C163.482 387.355 163.692 387.958 163.921 388.554L164.735 390.698C164.964 391.281 165.187 391.871 165.391 392.455C165.679 393.169 165.975 393.891 166.27 394.605C166.506 395.169 166.736 395.739 166.978 396.303C167.287 397.037 167.634 397.758 167.929 398.486C168.172 399.024 168.408 399.568 168.651 400.105C168.992 400.866 169.353 401.613 169.701 402.36L170.409 403.868C170.809 404.694 171.223 405.507 171.636 406.326C171.846 406.739 172.043 407.159 172.259 407.572C173.519 410.024 174.831 412.443 176.195 414.829C176.385 415.137 176.628 415.537 176.864 415.937Z" fill="#C6854E"/>
<path d="M153.012 327.778C153.012 231.201 231.358 152.908 328 152.908C424.642 152.908 502.988 231.201 502.988 327.778C503.013 353.8 497.214 379.498 486.017 402.991C474.82 426.484 458.507 447.177 438.273 463.556C434.683 466.476 430.979 469.249 427.161 471.875C387.696 496.911 337.84 496.911 292.832 492.906C288.463 492.25 284.107 491.424 279.784 490.474C262.511 486.671 245.79 480.804 230.341 472.249C226.523 469.898 222.821 467.359 219.235 464.632C215.631 461.889 212.171 458.961 208.87 455.86C205.748 452.963 202.732 449.951 199.824 446.827C169.686 414.507 152.954 371.955 153.012 327.778Z" stroke="#592D3D" stroke-width="12" stroke-miterlimit="10"/>
<path d="M253.295 497.383C193.749 497.383 206.063 572.274 205.492 655.556H253.295V497.383Z" fill="#D8985D"/>
<path d="M240.903 545.337L255.84 570.333L248.368 655.556H227.553C227.022 537.379 240.903 545.337 240.903 545.337Z" fill="#C6854E"/>
<path d="M406.372 701.444H249.628C247.318 701.443 245.104 700.525 243.472 698.892C241.84 697.26 240.923 695.046 240.923 692.739V506.089C240.923 503.781 241.84 501.568 243.472 499.935C245.104 498.303 247.318 497.385 249.628 497.383H402.627C411.214 497.383 415.091 502.405 415.091 510.416V692.712C415.094 693.858 414.871 694.994 414.434 696.054C413.998 697.113 413.356 698.076 412.546 698.888C411.736 699.699 410.774 700.342 409.714 700.781C408.655 701.22 407.519 701.445 406.372 701.444Z" fill="#D8985D"/>
<path d="M412.657 502.562C412.003 501.758 411.45 500.878 411.01 499.94C409.435 498.706 407.561 497.912 405.579 497.639C404.602 497.488 403.615 497.413 402.627 497.416H249.628C247.324 497.418 245.115 498.331 243.483 499.956C241.852 501.582 240.931 503.787 240.923 506.089C259.947 512.92 295.561 516.735 328 516.735C369.367 516.735 396.473 510.606 412.657 502.562Z" fill="#C6854E"/>
<path d="M400.16 497.383C459.698 497.383 447.392 572.274 447.963 655.556H415.077" stroke="#592D3D" stroke-width="12" stroke-miterlimit="10" stroke-linecap="square"/>
<path d="M253.295 497.383C193.749 497.383 206.063 572.274 205.492 655.556H238.338" stroke="#592D3D" stroke-width="12" stroke-miterlimit="10" stroke-linecap="square"/>
<path d="M249.628 497.449L402.627 497.383" stroke="#592D3D" stroke-width="12" stroke-miterlimit="10"/>
<path d="M249.628 701.444H326.13C254.528 701.444 259.933 549.893 240.922 549.893V692.713C240.919 693.857 241.142 694.992 241.577 696.051C242.013 697.109 242.654 698.072 243.462 698.883C244.271 699.694 245.232 700.338 246.29 700.777C247.348 701.217 248.482 701.444 249.628 701.444Z" fill="#C6854E"/>
<path d="M236.986 564.335C236.862 561.929 236.914 559.523 237.019 557.124C237.124 554.725 237.328 552.306 237.583 549.913C237.715 548.707 237.846 547.507 238.01 546.301C238.174 545.094 238.331 543.895 238.567 542.689C239.033 540.192 239.824 537.768 240.922 535.477C242.02 537.768 242.812 540.192 243.277 542.689C243.514 543.895 243.684 545.094 243.835 546.301C243.986 547.507 244.13 548.707 244.261 549.913C244.511 552.319 244.708 554.725 244.819 557.124C244.931 559.523 244.983 561.936 244.858 564.335H236.986Z" fill="#592D3D"/>
<path d="M415.077 570.333V575.578C415.248 597.867 415.248 620.811 415.077 642.936C415.077 644.818 415.077 646.686 415.077 648.528V692.719C415.08 693.863 414.857 694.997 414.421 696.055C413.984 697.113 413.344 698.075 412.535 698.885C411.727 699.696 410.766 700.339 409.709 700.778C408.651 701.217 407.517 701.444 406.372 701.444H249.628C247.318 701.443 245.104 700.525 243.472 698.892C241.839 697.26 240.923 695.046 240.923 692.739V654.585C240.923 652.94 240.923 651.262 240.923 649.57C240.759 626.711 240.759 603.767 240.923 580.54V564.335" stroke="#592D3D" stroke-width="12" stroke-miterlimit="10"/>
<path d="M411.142 570.333C411.017 567.6 411.076 564.859 411.181 562.119C411.286 559.379 411.489 556.645 411.738 553.905C411.87 552.535 412.007 551.165 412.165 549.795C412.322 548.425 412.486 547.061 412.722 545.691C413.179 542.869 413.97 540.112 415.078 537.477C416.185 540.112 416.976 542.869 417.433 545.691C417.669 547.061 417.839 548.431 417.99 549.795C418.141 551.158 418.285 552.535 418.417 553.905C418.666 556.645 418.869 559.379 418.974 562.119C419.079 564.859 419.138 567.6 419.014 570.333H411.142Z" fill="#592D3D"/>
<path d="M374.366 552.273C374.51 546.078 382.382 543.456 386.318 547.389C386.958 548.041 387.463 548.814 387.804 549.661C388.145 550.509 388.316 551.415 388.306 552.328C388.297 553.242 388.107 554.144 387.749 554.985C387.39 555.825 386.87 556.586 386.217 557.226C385.564 557.865 384.791 558.369 383.943 558.71C383.095 559.051 382.188 559.221 381.274 559.212C380.36 559.203 379.457 559.013 378.616 558.655C377.775 558.297 377.013 557.776 376.373 557.124C375.735 556.488 375.228 555.732 374.884 554.899C374.539 554.067 374.363 553.174 374.366 552.273Z" fill="#592D3D"/>
<path d="M267.72 552.076C267.582 546.733 273.486 544.111 277.422 546.078C282.67 548.044 282.67 555.256 277.422 558.533C274.798 559.844 272.174 558.533 269.714 556.908C269.08 556.273 268.577 555.52 268.235 554.691C267.893 553.862 267.718 552.973 267.72 552.076Z" fill="#592D3D"/>
<path d="M328 545.271C328.469 546.507 328.799 547.791 328.984 549.1C329.179 550.367 329.286 551.646 329.305 552.928L329.502 560.592C329.561 563.142 329.64 565.699 329.666 568.255L329.778 575.906C329.929 586.113 329.922 596.333 329.961 606.546C330.001 616.76 330.079 626.973 329.961 637.187C329.902 642.294 329.765 647.4 329.614 652.507C329.548 655.057 329.423 657.614 329.174 660.164C328.951 662.741 328.563 665.3 328.013 667.828C327.463 665.3 327.075 662.741 326.852 660.164C326.603 657.614 326.478 655.057 326.412 652.507C326.261 647.4 326.124 642.294 326.065 637.187C325.933 626.973 326.065 616.76 326.065 606.546C326.065 596.333 326.065 586.126 326.183 575.912L326.294 568.242L326.511 560.585L326.727 552.928C326.751 551.646 326.861 550.367 327.055 549.1C327.227 547.793 327.544 546.509 328 545.271Z" fill="#C6854E"/>
<path d="M278.944 578.856C279.917 578.393 280.948 578.063 282.008 577.872C283.021 577.682 284.048 577.572 285.078 577.544L291.212 577.328L303.479 577.059C311.652 576.935 319.82 576.902 328 576.882C336.18 576.863 344.354 576.777 352.528 576.882C356.615 576.941 360.702 577.079 364.795 577.23C366.835 577.302 368.882 577.426 370.922 577.669C372.994 577.899 375.045 578.289 377.056 578.836C375.046 579.387 372.994 579.775 370.922 579.996C368.882 580.245 366.835 580.37 364.795 580.435C360.702 580.586 356.615 580.717 352.528 580.776C344.354 580.901 336.18 580.776 328 580.776C319.82 580.776 311.646 580.776 303.466 580.678C299.379 580.639 295.292 580.508 291.212 580.35L285.078 580.127C284.05 580.1 283.025 579.99 282.014 579.8C280.954 579.623 279.921 579.305 278.944 578.856Z" fill="#C6854E"/>
<path d="M290.221 599.427C290.996 599.058 291.824 598.812 292.674 598.699C293.461 598.588 294.256 598.555 295.049 598.601C296.617 598.666 298.185 598.706 299.753 598.739C302.888 598.811 306.024 598.837 309.16 598.85C315.477 598.85 321.683 598.902 328.026 598.712C334.37 598.522 340.661 598.43 346.971 598.457C350.127 598.457 353.282 598.542 356.431 598.614C358.016 598.635 359.599 598.738 361.174 598.922C362.792 599.101 364.39 599.437 365.943 599.925C364.426 600.52 362.852 600.96 361.246 601.236C359.682 601.518 358.103 601.706 356.516 601.8C353.354 602.029 350.192 602.226 347.037 602.338C340.713 602.574 334.396 602.547 328.092 602.633C324.936 602.633 321.788 602.777 318.593 602.698C315.398 602.619 312.236 602.613 309.068 602.495C305.899 602.377 302.718 602.115 299.556 601.787C297.968 601.61 296.394 601.413 294.813 601.197C294.015 601.099 293.229 600.915 292.471 600.646C291.657 600.371 290.896 599.958 290.221 599.427Z" fill="#C6854E"/>
<path d="M287.938 622.693C288.716 622.235 289.562 621.903 290.444 621.709C291.266 621.518 292.106 621.411 292.95 621.388L297.955 621.178C301.294 621.06 304.64 620.962 307.979 620.909C314.657 620.811 321.335 620.811 328 620.811C334.665 620.811 341.356 620.7 348.034 620.811C351.373 620.87 354.712 621.008 358.051 621.159C359.726 621.215 361.397 621.359 363.057 621.591C364.766 621.826 366.448 622.223 368.081 622.778C366.454 623.322 364.778 623.711 363.076 623.938C361.415 624.176 359.742 624.322 358.064 624.377C354.725 624.528 351.386 624.666 348.047 624.725C341.369 624.856 334.685 624.764 328.006 624.725C321.328 624.685 314.65 624.685 307.972 624.561C304.633 624.495 301.288 624.377 297.949 624.24L292.943 623.997C292.099 623.972 291.26 623.862 290.437 623.669C289.557 623.479 288.714 623.149 287.938 622.693Z" fill="#C6854E"/>
<path d="M444.637 594.163C444.774 569.835 443.843 548.228 439.566 531.629C432.96 515.004 421.08 505.092 400.16 505.092L415.11 593.278C415.11 593.278 429.883 599.991 444.637 594.163Z" fill="#C6854E"/>
<path d="M450.285 587.24C449.536 587.858 448.722 588.392 447.858 588.833" stroke="#592D3D" stroke-width="12" stroke-miterlimit="10" stroke-linecap="square"/>
<path d="M213.928 530.921C209.448 547.684 208.68 569.684 208.851 594.51C221.905 600.109 241.926 593.101 241.926 593.101L253.295 506.41C233.044 506.39 220.973 515.503 213.928 530.921Z" fill="#C6854E"/>
<path d="M402.626 497.383H367.065V497.449C367.066 500.4 366.749 503.343 366.12 506.227C365.814 507.629 365.433 509.014 364.979 510.376C363.527 514.444 361.299 518.191 358.419 521.409C357.499 522.441 356.513 523.411 355.467 524.313C338.955 536.244 312.715 536.9 296.768 523.933C295.05 522.433 293.487 520.764 292.104 518.951C289.231 515.182 287.196 510.844 286.134 506.227C285.823 504.8 285.589 503.358 285.432 501.906C285.268 500.426 285.187 498.938 285.189 497.449V497.383H249.628C247.318 497.385 245.104 498.303 243.472 499.935C241.839 501.568 240.922 503.781 240.922 506.089V692.712C240.919 693.857 241.142 694.992 241.577 696.051C242.013 697.109 242.654 698.072 243.462 698.883C244.271 699.694 245.232 700.338 246.29 700.777C247.348 701.217 248.482 701.444 249.628 701.444H406.372C408.681 701.443 410.896 700.525 412.528 698.892C414.16 697.26 415.077 695.046 415.077 692.739V510.416C415.077 502.405 411.213 497.383 402.626 497.383Z" fill="black"/>
<path d="M400.16 497.383C441.842 497.383 448.31 534.094 448.638 584.683C436.437 592.301 416.553 585.542 416.553 585.542L400.16 497.383Z" fill="black"/>
<path d="M415.077 545.337L400.16 570.333L407.625 655.556H415.241V586.296L426.577 588.191C422.858 540.879 415.077 545.337 415.077 545.337Z" fill="black"/>
<path d="M253.295 497.383C212.767 497.383 203.55 532.652 202.881 581.071C215.345 594.091 240.929 584.074 240.929 584.074L253.295 497.383Z" fill="black"/>
<path d="M240.903 545.337V584.1L229.547 586.925C233.267 540.958 240.903 545.337 240.903 545.337Z" fill="black"/>
<path d="M400.16 497.383C444.381 497.383 451.623 534.284 451.918 585.083C434.731 593.232 416.553 585.542 416.553 585.542" stroke="#592D3D" stroke-width="12" stroke-miterlimit="10" stroke-linecap="square"/>
<path d="M253.295 497.383C209.48 497.383 200.762 533.242 200.316 583.077C213.856 592.766 240.896 584.1 240.896 584.1" stroke="#592D3D" stroke-width="12" stroke-miterlimit="10" stroke-linecap="square"/>
<path d="M249.628 701.444H326.13C254.528 701.444 259.933 549.893 240.922 549.893V692.713C240.919 693.857 241.142 694.992 241.577 696.051C242.013 697.109 242.654 698.072 243.462 698.883C244.271 699.694 245.232 700.338 246.29 700.777C247.348 701.217 248.482 701.444 249.628 701.444Z" fill="black"/>
<path d="M236.986 564.335C236.862 561.929 236.914 559.523 237.019 557.124C237.124 554.725 237.328 552.306 237.583 549.913C237.715 548.707 237.846 547.507 238.01 546.301C238.174 545.094 238.331 543.895 238.567 542.689C239.033 540.192 239.824 537.768 240.922 535.477C242.021 537.767 242.811 540.192 243.271 542.689C243.514 543.895 243.684 545.094 243.835 546.301C243.986 547.507 244.13 548.707 244.261 549.913C244.511 552.319 244.708 554.725 244.819 557.124C244.931 559.523 244.983 561.936 244.858 564.335H236.986Z" fill="black"/>
<path d="M415.077 570.333V575.578C415.248 597.867 415.248 620.811 415.077 642.936C415.077 644.818 415.077 646.686 415.077 648.528V692.719C415.08 693.863 414.857 694.997 414.421 696.055C413.984 697.113 413.344 698.075 412.535 698.885C411.727 699.696 410.766 700.339 409.709 700.778C408.651 701.217 407.517 701.444 406.372 701.444H249.628C247.318 701.443 245.104 700.525 243.472 698.892C241.839 697.26 240.923 695.046 240.923 692.739V654.585C240.923 652.94 240.923 651.262 240.923 649.57C240.759 626.711 240.759 603.767 240.923 580.54V564.335" stroke="#592D3D" stroke-width="12" stroke-miterlimit="10"/>
<path d="M411.142 570.333C411.017 567.6 411.076 564.859 411.181 562.119C411.286 559.379 411.489 556.645 411.738 553.905C411.87 552.535 412.007 551.165 412.165 549.795C412.322 548.425 412.486 547.061 412.729 545.691C413.181 542.869 413.969 540.111 415.078 537.477C416.185 540.112 416.976 542.869 417.433 545.691C417.669 547.061 417.839 548.431 417.99 549.795C418.141 551.158 418.285 552.535 418.417 553.905C418.666 556.645 418.869 559.379 418.974 562.119C419.079 564.859 419.138 567.6 419.014 570.333H411.142Z" fill="black"/>
<path d="M249.628 497.449L402.627 497.383" stroke="#592D3D" stroke-width="12" stroke-miterlimit="10"/>
<path d="M367.065 497.449C367.066 500.4 366.749 503.343 366.12 506.227C365.815 507.629 365.434 509.015 364.979 510.376C363.527 514.444 361.3 518.191 358.419 521.409C357.499 522.441 356.513 523.411 355.467 524.313C338.955 536.244 312.715 536.9 296.768 523.933C295.05 522.433 293.487 520.764 292.104 518.951C289.231 515.182 287.196 510.844 286.134 506.227C285.823 504.8 285.589 503.358 285.432 501.906C285.268 500.426 285.187 498.938 285.189 497.449" stroke="#592D3D" stroke-width="12" stroke-miterlimit="10"/>
<path d="M330.23 543.056C326.262 543.853 322.202 544.096 318.167 543.777C314.095 543.491 310.079 542.662 306.227 541.312C302.352 539.984 298.702 538.074 295.403 535.648L294.183 534.724C293.783 534.409 293.396 534.068 293.009 533.727C292.23 533.064 291.5 532.345 290.824 531.577C289.478 530.065 288.295 528.414 287.295 526.654C288.699 528.06 290.175 529.393 291.717 530.646C292.097 530.961 292.484 531.269 292.865 531.564C293.245 531.859 293.671 532.101 294.072 532.377C294.472 532.652 294.872 532.927 295.285 533.183L296.538 533.943C299.885 535.925 303.423 537.563 307.1 538.834C310.783 540.121 314.569 541.097 318.416 541.751C322.329 542.391 326.272 542.826 330.23 543.056Z" fill="#592D3D"/>
<path d="M201.937 585.083C202.682 585.763 203.491 586.371 204.351 586.899" stroke="#592D3D" stroke-width="12" stroke-miterlimit="10" stroke-linecap="square"/>
<path d="M442.603 578.652C441.238 579.469 439.735 580.029 438.169 580.304C436.613 580.61 435.03 580.753 433.445 580.73C431.863 580.7 430.287 580.526 428.735 580.213C427.961 580.075 427.207 579.845 426.446 579.642C425.685 579.439 424.957 579.137 424.235 578.829C425.029 578.829 425.796 578.947 426.57 579.013L428.88 579.203C429.647 579.203 430.408 579.334 431.176 579.341C431.943 579.347 432.698 579.413 433.458 579.419C434.989 579.446 436.52 579.404 438.05 579.295C439.581 579.189 441.103 578.974 442.603 578.652Z" fill="black"/>
<path d="M339.677 568.118L330.23 584.467L320.784 568.118H289.296L330.204 638.918L371.112 568.118H339.677Z" stroke="#FF0000" stroke-width="16"/>
<path d="M339.677 568.118L330.23 584.467L320.784 568.118H289.296L330.204 638.918L371.112 568.118H339.677Z" fill="#44B783"/>
<path d="M339.677 568.118L330.23 584.467L320.784 568.118H305.696L330.244 610.604L354.791 568.118H339.677Z" fill="#364A5E"/>
<path d="M223.735 386.804C231.329 386.804 237.485 380.652 237.485 373.064C237.485 365.475 231.329 359.323 223.735 359.323C216.142 359.323 209.986 365.475 209.986 373.064C209.986 380.652 216.142 386.804 223.735 386.804Z" fill="black"/>
<path d="M223.65 384.156C224.824 384.09 226.136 383.985 227.389 383.854C228.642 383.723 229.921 383.566 231.188 383.369C232.454 383.172 233.726 382.943 234.999 382.713C236.272 382.484 237.57 382.268 238.935 382.169C237.864 382.993 236.693 383.68 235.452 384.215C234.216 384.73 232.95 385.168 231.66 385.526C230.367 385.902 229.053 386.2 227.724 386.417C226.372 386.653 225.003 386.772 223.63 386.771L223.65 384.156Z" fill="#592D3D"/>
<path d="M434.121 386.804C441.715 386.804 447.871 380.652 447.871 373.064C447.871 365.475 441.715 359.323 434.121 359.323C426.527 359.323 420.371 365.475 420.371 373.064C420.371 380.652 426.527 386.804 434.121 386.804Z" fill="black"/>
<path d="M434.121 384.156C435.302 384.09 436.607 383.985 437.86 383.854C439.113 383.723 440.399 383.566 441.665 383.369C442.931 383.172 444.204 382.943 445.476 382.713C446.749 382.484 448.048 382.268 449.412 382.169C448.34 382.992 447.17 383.679 445.929 384.215C444.694 384.73 443.427 385.168 442.137 385.526C440.844 385.902 439.53 386.199 438.201 386.417C436.85 386.653 435.48 386.772 434.108 386.771L434.121 384.156Z" fill="#592D3D"/>
<path d="M290.7 407.664C290.7 395.274 365.3 397.136 365.3 407.664C365.3 417.55 361.37 427.031 354.375 434.021C347.38 441.012 337.892 444.939 328 444.939C318.107 444.939 308.62 441.012 301.625 434.021C294.63 427.031 290.7 417.55 290.7 407.664Z" fill="black"/>
<path d="M324.72 421.522C313.601 420.867 303.905 425.947 300.677 433.466C306.044 439.132 313.054 442.972 320.721 444.446C328.387 445.92 336.322 444.952 343.409 441.681C344.883 441.001 346.31 440.224 347.68 439.353C347.076 430.103 337.223 422.296 324.72 421.522Z" fill="#F28195"/>
<path d="M290.7 407.664C290.7 395.274 365.3 397.136 365.3 407.664C365.3 417.55 361.37 427.031 354.375 434.021C347.38 441.012 337.892 444.939 328 444.939C318.107 444.939 308.62 441.012 301.625 434.021C294.63 427.031 290.7 417.55 290.7 407.664Z" stroke="#592D3D" stroke-width="6" stroke-miterlimit="10"/>
<path d="M313.647 414.613C313.942 414.541 314.06 414.508 314.25 414.475L314.742 414.383C315.064 414.324 315.398 414.291 315.7 414.265C316.33 414.201 316.963 414.179 317.596 414.2C318.878 414.228 320.153 414.406 321.394 414.731C323.993 415.388 326.349 416.776 328.184 418.73C329.91 420.585 331.066 422.897 331.516 425.39C331.926 427.69 331.615 430.06 330.624 432.175C329.266 430.254 328.223 428.53 327.134 427.088C326.644 426.397 326.107 425.74 325.527 425.121C324.997 424.578 324.402 424.103 323.756 423.705C322.531 422.972 321.165 422.505 319.748 422.335C319.003 422.239 318.254 422.187 317.504 422.178C317.117 422.178 316.73 422.178 316.349 422.211L315.792 422.25H315.536C315.47 422.25 315.339 422.25 315.385 422.25L313.647 414.613Z" fill="black"/>
<path d="M366.527 261.79C358.091 277.523 327.167 286.334 324.654 282.387C321.84 277.975 349.484 246.122 333.773 212.806" fill="#C6854E"/>
<path d="M514.304 224.757C510.958 221.414 493.929 225.957 476.787 224.606C459.991 201.812 438.165 183.192 413.001 170.192C387.838 157.193 360.015 150.164 331.693 149.65C330.093 136.224 331.201 124.949 329.981 123.362C328.348 121.252 319.82 131.675 317.602 143.685C309.789 133.851 296.518 128.607 296.138 131.36C295.889 133.117 301.019 140.597 305.853 150.961C232.644 159.792 172.633 211.443 151.641 280.106C142.549 287.92 134.021 293.44 133.929 296.947C133.752 303.45 159.716 303.083 171.045 302.073V302.034C210.832 300.723 288.469 293.001 326.137 254.251C322.516 266.765 315.844 275.989 317.13 277.956C319.098 281.017 342.268 274.553 349.976 262.72C381.464 275.563 441.481 291.014 493.64 252.127L493.496 251.845C503.001 243.906 518.47 228.953 514.304 224.757Z" fill="black"/>
<path d="M476.814 228.54C473.271 228.697 469.821 228.612 466.318 228.448C462.814 228.284 459.37 228.009 455.907 227.622C454.175 227.432 452.443 227.229 450.718 226.966C448.993 226.704 447.261 226.494 445.542 226.16C442.04 225.531 438.614 224.533 435.322 223.184C438.763 222.303 442.275 221.729 445.818 221.466C447.543 221.322 449.268 221.224 450.993 221.152L456.163 220.929C459.607 220.785 463.044 220.706 466.475 220.634C469.906 220.562 473.35 220.555 476.722 220.634L476.814 228.54Z" fill="#592D3D"/>
<path d="M155.21 281.889C155.21 281.889 155.21 282.046 155.21 282.145L155.131 282.492L154.947 283.22C154.809 283.711 154.665 284.216 154.514 284.721C154.206 285.737 153.858 286.779 153.504 287.835C153.15 288.89 152.809 289.985 152.343 291.113C152.082 291.702 151.78 292.271 151.438 292.817C151.045 293.465 150.59 294.073 150.08 294.633C148.973 293.665 148.133 292.431 147.639 291.047C147.414 290.43 147.247 289.794 147.141 289.146C147.003 288.49 146.937 287.835 146.859 287.212C146.727 285.904 146.727 284.587 146.859 283.279C146.923 282.617 147.028 281.96 147.174 281.312C147.252 280.984 147.338 280.656 147.442 280.322C147.493 280.151 147.552 279.982 147.62 279.817C147.685 279.634 147.738 279.503 147.856 279.227L155.21 281.889Z" fill="#592D3D"/>
<path d="M171.045 302.093V302.054C182.197 301.687 196.387 300.808 211.809 298.881C213.534 262.222 226.241 219.178 255.053 168.792L250.592 166.662C227.062 177.587 206.093 193.334 189.046 212.881C171.999 232.428 159.255 255.339 151.641 280.125C142.549 287.94 134.021 293.459 133.929 296.967C133.752 303.47 159.716 303.103 171.045 302.093Z" fill="black"/>
<path d="M514.304 224.757C510.958 221.414 493.929 225.957 476.787 224.606C459.991 201.812 438.165 183.192 413.001 170.192C387.838 157.193 360.015 150.164 331.693 149.65C330.093 136.224 331.201 124.949 329.981 123.362C328.348 121.252 319.82 131.675 317.602 143.685C309.789 133.851 296.518 128.607 296.138 131.36C295.889 133.117 301.019 140.597 305.853 150.961C232.644 159.792 172.633 211.443 151.641 280.106C142.549 287.92 134.021 293.44 133.929 296.947C133.752 303.45 159.716 303.083 171.045 302.073V302.034C210.832 300.723 288.469 293.001 326.137 254.251C322.516 266.765 315.844 275.989 317.13 277.956C319.098 281.017 342.268 274.553 349.976 262.72C381.464 275.563 441.481 291.014 493.64 252.127L493.496 251.845C503.001 243.906 518.47 228.953 514.304 224.757Z" stroke="#202020" stroke-width="12" stroke-miterlimit="10"/>
<path d="M331.89 160.159C322.546 160.697 313.241 161.778 304.023 163.397C301.74 163.836 299.464 164.322 297.174 164.741C294.885 165.161 292.648 165.797 290.385 166.321L283.654 168.104C281.424 168.76 279.213 169.468 276.996 170.149C268.151 173 259.509 176.445 251.13 180.461C242.71 184.546 234.549 189.143 226.694 194.228C233.691 187.851 241.415 182.319 249.706 177.747C258.004 173.117 266.741 169.32 275.789 166.413C278.072 165.757 280.342 165.043 282.624 164.413C284.907 163.784 287.216 163.22 289.545 162.709C291.874 162.198 294.203 161.791 296.538 161.398C298.874 161.004 301.229 160.696 303.577 160.401C312.975 159.246 322.474 159.165 331.89 160.159Z" fill="#FF0000"/>
<path d="M267.182 311.284H188.042C184.395 311.284 180.748 311.232 177.1 311.284H176.943C173.512 311.284 170.225 314.3 170.383 317.84C170.412 319.569 171.112 321.22 172.336 322.443C173.56 323.667 175.212 324.366 176.943 324.395H256.083C259.724 324.395 263.377 324.448 267.025 324.395H267.182C270.613 324.395 273.9 321.38 273.742 317.84C273.712 316.11 273.011 314.461 271.787 313.238C270.564 312.015 268.913 311.314 267.182 311.284Z" fill="black"/>
<path d="M476.466 311.284H397.326C393.679 311.284 390.031 311.232 386.384 311.284H386.227C382.796 311.284 379.509 314.3 379.667 317.84C379.695 319.569 380.396 321.22 381.62 322.443C382.844 323.667 384.496 324.366 386.227 324.395H465.366C469.014 324.395 472.661 324.448 476.308 324.395H476.466C479.897 324.395 483.183 321.38 483.026 317.84C482.996 316.11 482.295 314.461 481.071 313.238C479.847 312.015 478.196 311.314 476.466 311.284Z" fill="black"/>
</g>
<path d="M11 415.5C11 373.149 19.3417 331.212 35.5488 292.085C51.756 252.957 75.5112 217.405 105.458 187.458C135.405 157.511 170.957 133.756 210.085 117.549C249.212 101.342 291.149 93 333.5 93C375.851 93 417.788 101.342 456.915 117.549C496.043 133.756 531.595 157.511 561.542 187.458C591.489 217.405 615.244 252.957 631.451 292.085C647.658 331.212 656 373.149 656 415.5L650.548 415.5C650.548 373.865 642.347 332.637 626.414 294.171C610.481 255.705 587.127 220.754 557.687 191.314C528.246 161.873 493.295 138.519 454.829 122.586C416.363 106.653 375.135 98.4524 333.5 98.4524C291.865 98.4524 250.637 106.653 212.171 122.586C173.705 138.519 138.754 161.873 109.314 191.314C79.8729 220.754 56.5194 255.705 40.5862 294.171C24.6531 332.637 16.4524 373.865 16.4524 415.5L11 415.5Z" fill="#FF0000"/>
</svg>
