<svg width="100" height="74" viewBox="0 0 100 74" fill="none" xmlns="http://www.w3.org/2000/svg">
<path d="M59.4645 40.5355C57.5118 38.5829 57.5118 35.4171 59.4645 33.4645L91.2843 1.64466C93.2369 -0.307961 96.4027 -0.307961 98.3553 1.64466C100.308 3.59728 100.308 6.76311 98.3553 8.71573L70.0711 37L98.3553 65.2843C100.308 67.2369 100.308 70.4027 98.3553 72.3553C96.4027 74.308 93.2369 74.308 91.2843 72.3553L59.4645 40.5355ZM65 42H63V32H65V42Z" fill="white" fill-opacity="0.25"/>
<path d="M28.4645 40.5355C26.5118 38.5829 26.5118 35.4171 28.4645 33.4645L60.2843 1.64466C62.2369 -0.307961 65.4027 -0.307961 67.3553 1.64466C69.308 3.59728 69.308 6.76311 67.3553 8.71573L39.0711 37L67.3553 65.2843C69.308 67.2369 69.308 70.4027 67.3553 72.3553C65.4027 74.308 62.2369 74.308 60.2843 72.3553L28.4645 40.5355ZM34 42H32V32H34V42Z" fill="white" fill-opacity="0.25"/>
<path d="M1.46447 40.5355C-0.488155 38.5829 -0.488155 35.4171 1.46447 33.4645L33.2843 1.64466C35.2369 -0.307961 38.4027 -0.307961 40.3553 1.64466C42.308 3.59728 42.308 6.76311 40.3553 8.71573L12.0711 37L40.3553 65.2843C42.308 67.2369 42.308 70.4027 40.3553 72.3553C38.4027 74.308 35.2369 74.308 33.2843 72.3553L1.46447 40.5355ZM7 42H5V32H7V42Z" fill="white" fill-opacity="0.25"/>
</svg>
