<svg width="36" height="35" viewBox="0 0 36 35" fill="none" xmlns="http://www.w3.org/2000/svg">
<g clip-path="url(#clip0_337_30)">
<path d="M12.121 14.0776H7.70445C7.50844 14.0776 7.34961 14.2365 7.34961 14.4324V28.6209C7.34961 28.8169 7.50844 28.9757 7.70445 28.9757H12.121C12.317 28.9757 12.4758 28.8169 12.4758 28.6209V14.4324C12.4758 14.2365 12.317 14.0776 12.121 14.0776Z" fill="#0E76A8"/>
<path d="M9.91436 7.02417C8.30737 7.02417 7 8.33012 7 9.93534C7 11.5413 8.30737 12.8477 9.91436 12.8477C11.5201 12.8477 12.8264 11.5412 12.8264 9.93534C12.8265 8.33012 11.5201 7.02417 9.91436 7.02417Z" fill="#0E76A8"/>
<path d="M23.3549 13.7249C21.581 13.7249 20.2698 14.4875 19.4744 15.3539V14.4324C19.4744 14.2365 19.3156 14.0776 19.1196 14.0776H14.89C14.694 14.0776 14.5352 14.2365 14.5352 14.4324V28.6208C14.5352 28.8168 14.694 28.9757 14.89 28.9757H19.2969C19.4929 28.9757 19.6517 28.8168 19.6517 28.6208V21.6008C19.6517 19.2353 20.2943 18.3137 21.9433 18.3137C23.7392 18.3137 23.8819 19.7911 23.8819 21.7226V28.6209C23.8819 28.8169 24.0407 28.9757 24.2367 28.9757H28.6452C28.8413 28.9757 29.0001 28.8169 29.0001 28.6209V20.8383C29.0001 17.3208 28.3294 13.7249 23.3549 13.7249Z" fill="#0E76A8"/>
</g>
<rect x="1.5" y="1.5" width="33" height="32" rx="9.5" stroke="#0E76A8" stroke-width="3"/>
<defs>
<clipPath id="clip0_337_30">
<rect width="22" height="22" fill="white" transform="translate(7 7)"/>
</clipPath>
</defs>
</svg>
