<svg width="16" height="35" viewBox="0 0 16 35" fill="none" xmlns="http://www.w3.org/2000/svg">
<path d="M7.75078 0.0955811L8.68477 1.84982C8.89475 2.17355 9.12224 2.46009 9.39018 2.72694C10.1757 3.50271 10.908 4.33068 11.5819 5.20519C13.1644 7.28316 14.2319 9.5908 14.9941 12.0865C15.4513 13.6111 15.6996 15.1751 15.7181 16.7565C15.7947 21.4844 14.1739 25.5441 10.906 28.9181C10.3745 29.4531 9.8002 29.944 9.18895 30.3858C8.86522 30.3858 8.71211 30.1375 8.57868 29.909C8.3357 29.4851 8.17399 29.0196 8.10185 28.5364C7.98701 27.9644 7.91155 27.3924 7.94873 26.8018V26.535C7.92248 26.4781 7.63704 0.230102 7.75078 0.0955811Z" fill="#599636"/>
<path d="M7.7509 0.0376254C7.71263 -0.0389313 7.67435 0.0190331 7.63607 0.0562178C7.65466 0.439001 7.52123 0.780226 7.31234 1.10614C7.08267 1.42986 6.77864 1.67813 6.4735 1.94498C4.77832 3.41268 3.44404 5.18552 2.37553 7.16834C0.953762 9.83688 0.221005 12.6968 0.0132079 15.7077C-0.0819411 16.7937 0.356619 20.6259 0.698937 21.7316C1.63293 24.667 3.31062 27.1267 5.48373 29.2615C6.01744 29.7755 6.58834 30.2524 7.17892 30.7106C7.35062 30.7106 7.36922 30.5575 7.40859 30.4438C7.48387 30.2004 7.54126 29.9518 7.58029 29.7001L7.96308 26.8412L7.7509 0.0376254Z" fill="#6CAC48"/>
<path d="M8.68493 31.5472C8.72321 31.1098 8.9332 30.7467 9.16177 30.3847C8.9321 30.2895 8.76149 30.1003 8.62806 29.8893C8.51301 29.6894 8.41777 29.4788 8.34371 29.2604C8.07686 28.4598 8.01999 27.6199 7.94343 26.8018V26.3064C7.84828 26.383 7.82859 27.0304 7.82859 27.1266C7.77294 27.9913 7.6582 28.8511 7.48518 29.7C7.42831 30.0435 7.39003 30.3858 7.17896 30.6909C7.17896 30.7292 7.17896 30.7675 7.19755 30.8243C7.54096 31.8349 7.63501 32.864 7.69298 33.9129V34.2956C7.69298 34.7528 7.67439 34.6565 8.05389 34.8097C8.207 34.8665 8.37762 34.8862 8.53073 35C8.64556 35 8.66416 34.9048 8.66416 34.8283L8.60729 34.1994V32.4452C8.58869 32.1389 8.64556 31.8349 8.68384 31.5483L8.68493 31.5472Z" fill="#C2BFBF"/>
</svg>
