<svg width="35" height="35" viewBox="0 0 35 35" fill="none" xmlns="http://www.w3.org/2000/svg">
<path d="M26.3958 33.8333H17.4271C14.875 33.8333 12.8333 33.0312 11.375 31.5C8.67708 28.7291 8.82292 24.5729 8.82292 24.427V7.51038C8.82292 6.92704 9.1875 6.34371 9.69792 6.12496C10.2813 5.90621 10.8646 5.97913 11.375 6.34371L20.5625 14.2187C21.2188 14.802 21.2917 15.75 20.7083 16.4062C20.125 17.0625 19.1771 17.1354 18.5208 16.552L11.8854 10.8645V24.5C11.8854 24.5729 11.8125 27.5625 13.5625 29.3854C14.5104 30.3333 15.75 30.7708 17.4271 30.7708H26.3229C28.7292 30.7708 30.6979 28.802 30.6979 26.3958V8.60413C30.6979 6.70829 29.4583 5.03121 27.6354 4.44788C26.8333 4.15621 26.3958 3.35413 26.6146 2.47913C26.8333 1.60413 27.7813 1.23954 28.5833 1.45829C31.7188 2.47913 33.8333 5.32288 33.8333 8.60413V26.3958C33.8333 30.552 30.4792 33.8333 26.3958 33.8333ZM8.3125 32.5208C8.60417 31.7187 8.09375 30.8437 7.29167 30.552C5.46875 29.9687 4.22917 28.2916 4.22917 26.3958V8.60413C4.22917 6.19788 6.19792 4.22913 8.60417 4.22913H17.5C19.1771 4.22913 20.4167 4.66662 21.3646 5.61454C23.1146 7.43746 23.0417 10.427 23.0417 10.5V24.1354L16.4062 18.4479C15.75 17.8645 14.8021 17.9375 14.2188 18.5937C13.6354 19.25 13.7083 20.1979 14.3646 20.7812L23.5521 28.6562C23.9896 29.0208 24.6458 29.1666 25.2292 28.875C25.8125 28.6562 26.1042 28.0729 26.1042 27.4895V10.5729C26.1042 10.427 26.25 6.27079 23.5521 3.49996C22.0208 1.96871 19.9792 1.16663 17.5 1.16663H8.53125C4.44792 1.16663 1.09375 4.44788 1.09375 8.60413V26.3958C1.09375 29.677 3.20833 32.5208 6.34375 33.5416C6.48958 33.6145 6.63542 33.6145 6.78125 33.6145C7.4375 33.6145 8.09375 33.177 8.3125 32.5208Z" fill="white"/>
</svg>
