<svg width="35" height="35" viewBox="0 0 35 35" fill="none" xmlns="http://www.w3.org/2000/svg">
<g clip-path="url(#clip0_381_17)">
<path d="M20.9308 22.6514L12.3469 20.8577C12.311 20.9272 12.271 20.9945 12.2272 21.0593L20.0416 32.4587L20.513 31.9878L21.8425 23.7204C21.6178 23.6255 21.4183 23.4794 21.2601 23.2938C21.1018 23.1082 20.989 22.8882 20.9308 22.6513V22.6514ZM17.7994 11.4304C17.4779 11.9237 16.9228 12.2501 16.2906 12.2501C16.1932 12.2501 16.0986 12.2403 16.0057 12.2255L12.091 18.3507L22.5497 13.8499C22.5464 13.8078 22.5371 13.7684 22.5371 13.7252C22.5371 13.6371 22.5492 13.5518 22.5634 13.4676L17.7994 11.4304ZM18.0838 10.3142L23.1513 12.4809C23.3127 12.3547 23.4974 12.2614 23.6949 12.2064L24.5278 7.02748L21.3546 3.85437L17.783 9.44316C17.958 9.70209 18.0618 10.0024 18.0838 10.3142ZM28.7021 11.2018L25.522 8.02115L24.8307 12.3152C25.006 12.4033 25.1634 12.5231 25.295 12.6685L28.7021 11.2018ZM21.0829 21.5204C21.2073 21.2944 21.3861 21.1031 21.603 20.9636C21.82 20.8241 22.0683 20.7408 22.3255 20.7214L23.2388 15.041C23.1671 14.9934 23.1031 14.9365 23.0403 14.878L12.5214 19.405C12.5482 19.515 12.5668 19.6271 12.5755 19.7436L21.0829 21.5204ZM29.5683 12.0686L25.8889 13.6518L34.9672 17.5331L35 17.5003L29.5683 12.0686ZM22.9932 23.7375L21.8874 30.6123L28.3083 24.1914L23.6834 23.2256C23.506 23.4577 23.2668 23.6352 22.9932 23.7375ZM10.5127 21.97C10.2803 21.97 10.0577 21.9301 9.84936 21.8594L7.71654 25.1971L6.8924 24.3735L8.91256 21.2126C8.8626 21.1506 8.81604 21.0859 8.77311 21.0189L5.11342 22.5946L4.24594 21.7271L8.2518 20.0028L1.00967 18.4912L0.0191406 17.5003L0.3325 17.1869L8.68396 18.9304C8.78001 18.7482 8.90298 18.5815 9.04873 18.436L4.99529 12.5236L5.81397 11.7049L10.0488 17.8825C10.2009 17.8472 10.3565 17.8291 10.5126 17.8284C10.6914 17.8284 10.8648 17.8536 11.0305 17.8962L14.9933 11.6956C14.6706 11.3609 14.4905 10.9141 14.4907 10.4493C14.4907 10.3071 14.5087 10.1693 14.5399 10.0369L9.59615 7.92326L10.4634 7.05592L15.1473 9.05912C15.3849 8.86336 15.6688 8.73201 15.9717 8.67771C16.2747 8.6234 16.5865 8.64797 16.8772 8.74904L20.5309 3.03078L17.5003 0L0 17.5003L17.5003 35.0005L19.2224 33.2784L11.3494 21.7927C11.0859 21.9095 10.8009 21.9699 10.5127 21.97ZM24.3528 15.2858L23.4236 21.0604C23.586 21.1909 23.7204 21.3527 23.819 21.5362C23.9176 21.7197 23.9782 21.9212 23.9973 22.1286L29.2708 23.2295L34.0997 18.4006L25.3836 14.674C25.1342 15.0061 24.7637 15.2259 24.3528 15.2858Z" fill="#25C7B7"/>
</g>
<defs>
<clipPath id="clip0_381_17">
<rect width="35" height="35" fill="white"/>
</clipPath>
</defs>
</svg>
