<svg width="100" height="74" viewBox="0 0 100 74" fill="none" xmlns="http://www.w3.org/2000/svg">
<path d="M40.5355 40.5355C42.4882 38.5829 42.4882 35.4171 40.5355 33.4645L8.71573 1.64466C6.76311 -0.307961 3.59728 -0.307961 1.64466 1.64466C-0.307961 3.59728 -0.307961 6.76311 1.64466 8.71573L29.9289 37L1.64466 65.2843C-0.307961 67.2369 -0.307961 70.4027 1.64466 72.3553C3.59728 74.308 6.76311 74.308 8.71573 72.3553L40.5355 40.5355ZM35 42H37V32H35V42Z" fill="white" fill-opacity="0.25"/>
<path d="M71.5355 40.5355C73.4882 38.5829 73.4882 35.4171 71.5355 33.4645L39.7157 1.64466C37.7631 -0.307961 34.5973 -0.307961 32.6447 1.64466C30.692 3.59728 30.692 6.76311 32.6447 8.71573L60.9289 37L32.6447 65.2843C30.692 67.2369 30.692 70.4027 32.6447 72.3553C34.5973 74.308 37.7631 74.308 39.7157 72.3553L71.5355 40.5355ZM66 42H68V32H66V42Z" fill="white" fill-opacity="0.25"/>
<path d="M98.5355 40.5355C100.488 38.5829 100.488 35.4171 98.5355 33.4645L66.7157 1.64466C64.7631 -0.307961 61.5973 -0.307961 59.6447 1.64466C57.692 3.59728 57.692 6.76311 59.6447 8.71573L87.9289 37L59.6447 65.2843C57.692 67.2369 57.692 70.4027 59.6447 72.3553C61.5973 74.308 64.7631 74.308 66.7157 72.3553L98.5355 40.5355ZM93 42H95V32H93V42Z" fill="white" fill-opacity="0.25"/>
</svg>
