<svg width="28" height="35" viewBox="0 0 28 35" fill="none" xmlns="http://www.w3.org/2000/svg">
<g clip-path="url(#clip0_447_16)">
<path d="M7.41652 0.000494556C7.23961 0.00595275 7.04911 0.0713441 6.83292 0.241832C6.30369 0.0377387 5.79019 -0.0332178 5.33117 0.382354C4.62235 0.290421 4.39204 0.480174 4.21748 0.701712C4.06187 0.698501 3.05318 0.541712 2.59051 1.2318C1.42803 1.09427 1.06061 1.91557 1.47694 2.68154C1.23945 3.04906 0.993403 3.41219 1.54864 4.11298C1.35225 4.50318 1.47405 4.92657 1.93671 5.43889C1.8147 5.9876 2.05465 6.3746 2.4852 6.6763C2.40461 7.42706 3.17368 7.86361 3.40325 8.01912C3.49144 8.45652 3.6752 8.86942 4.55354 9.09759C4.69845 9.74958 5.22629 9.86217 5.73754 9.99894C4.04796 10.9811 2.59908 12.2732 2.60892 15.4438L2.36138 15.8852C0.424039 17.0633 -1.31895 20.8501 1.40673 23.9278C1.58471 24.8913 1.8833 25.5833 2.14915 26.3491C2.54674 29.4353 5.14174 30.8804 5.82626 31.0513C6.82918 31.8152 7.89738 32.5401 9.34305 33.0479C10.7056 34.4533 12.1818 34.9889 13.6662 34.9881C13.688 34.9881 16.6925 34.4534 18.0552 33.0479C19.5006 32.5401 20.5688 31.8152 21.572 31.0513C22.2563 30.8804 24.8513 29.4353 25.2489 26.3491C25.5147 25.5833 25.8133 24.8913 25.9914 23.9278C28.7169 20.8497 26.974 17.0629 25.0368 15.8848L24.7888 15.4433C24.7986 12.2731 23.3497 10.9809 21.6602 9.99852C22.1713 9.86174 22.6994 9.74915 22.8441 9.09716C23.7224 8.86888 23.9063 8.45609 23.9943 8.01869C24.224 7.86319 24.993 7.42664 24.9126 6.67587C25.3429 6.37417 25.583 5.98706 25.4609 5.43846C25.9237 4.92614 26.0453 4.50276 25.849 4.11244C26.4044 3.41208 26.1579 3.04895 25.9208 2.68143C26.3369 1.91546 25.9697 1.09406 24.8068 1.23169C24.3444 0.541605 23.3358 0.698287 23.1798 0.701498C23.0053 0.480067 22.775 0.290314 22.0662 0.382247C21.6072 -0.0333248 21.0939 0.0375247 20.5645 0.241725C19.9358 -0.254328 19.5199 0.143264 19.0447 0.293632C18.2836 0.0449093 18.1094 0.385565 17.7355 0.524374C16.9054 0.348963 16.6532 0.730823 16.2554 1.13387L15.7924 1.12467C14.5404 1.86249 13.9184 3.36488 13.6979 4.13727C13.4775 3.36478 12.8568 1.86238 11.6051 1.12467L11.1422 1.13387C10.7438 0.730823 10.4916 0.348963 9.66155 0.524374C9.28751 0.385565 9.11413 0.0449093 8.35234 0.293632C8.04047 0.194956 7.75365 -0.0101008 7.41599 0.000387533L-1.17725 15.0903" fill="black"/>
<path d="M4.92389 3.24649C8.24547 4.95898 10.1765 6.34429 11.2344 7.52411C10.6927 9.69551 7.8664 9.79461 6.83298 9.73372C7.04456 9.63526 7.22115 9.51721 7.28376 9.33602C7.02444 9.15173 6.105 9.31654 5.46308 8.95598C5.70966 8.90482 5.82503 8.85506 5.9403 8.67312C5.3339 8.47973 4.68063 8.31298 4.29641 7.99255C4.50372 7.99512 4.69732 8.039 4.96809 7.85118C4.42495 7.55847 3.84531 7.32644 3.39496 6.87898C3.67579 6.87213 3.97856 6.87619 4.06664 6.77292C3.56951 6.4649 3.14998 6.12243 2.8028 5.74774C3.19579 5.79515 3.36178 5.75437 3.45682 5.68588C3.08095 5.30092 2.60534 4.97589 2.37855 4.50156C2.6703 4.60216 2.93732 4.64069 3.12975 4.49278C3.00207 4.20467 2.45497 4.03472 2.13989 3.36144C2.44716 3.3913 2.77294 3.42843 2.83811 3.36144C2.69556 2.78051 2.4509 2.45388 2.21096 2.11547C2.8684 2.10573 3.86458 2.11804 3.81952 2.06249L3.41294 1.64714C4.05518 1.47419 4.71231 1.67485 5.18942 1.82383C5.40357 1.65484 5.18557 1.44112 4.92421 1.22289C5.47003 1.29578 5.9632 1.42121 6.40906 1.59405C6.64718 1.37904 6.25441 1.16392 6.06433 0.948914C6.90757 1.10881 7.26482 1.33366 7.61981 1.55873C7.87742 1.31183 7.63458 1.10196 7.46078 0.887055C8.0966 1.12251 8.42409 1.42656 8.76882 1.72665C8.88569 1.5689 9.06581 1.45321 8.84834 1.07263C9.29976 1.33281 9.63977 1.63943 9.89128 1.98297C10.1706 1.8051 10.0577 1.56194 10.0592 1.33773C10.5284 1.71938 10.8261 2.12553 11.1905 2.52205C11.264 2.46854 11.3282 2.28735 11.385 2.00063C12.5041 3.08639 14.0856 5.82137 11.7915 6.90573C9.83905 5.29546 7.50723 4.12494 4.92314 3.24692L4.92389 3.24649ZM22.5483 3.24649C19.2271 4.95919 17.2961 6.34407 16.2383 7.52411C16.7801 9.69551 19.6062 9.79461 20.6396 9.73372C20.4281 9.63526 20.2515 9.51721 20.189 9.33602C20.4483 9.15173 21.3677 9.31654 22.0095 8.95598C21.763 8.90482 21.6477 8.85506 21.5323 8.67312C22.1388 8.47973 22.7921 8.31298 23.1762 7.99255C22.9689 7.99512 22.7753 8.039 22.5045 7.85118C23.0478 7.55847 23.6274 7.32644 24.0778 6.87898C23.7968 6.87213 23.4941 6.87619 23.4061 6.77292C23.9032 6.4649 24.3227 6.12243 24.6699 5.74774C24.2768 5.79515 24.1109 5.75437 24.0159 5.68588C24.3917 5.30092 24.8674 4.97589 25.0942 4.50156C24.8023 4.60216 24.5353 4.64069 24.3429 4.49278C24.4705 4.20467 25.0178 4.03472 25.3327 3.36144C25.0256 3.3913 24.6997 3.42843 24.6345 3.36144C24.7774 2.7803 25.022 2.45366 25.262 2.11526C24.6045 2.10552 23.6084 2.11782 23.6534 2.06228L24.06 1.64681C23.4178 1.47397 22.7606 1.67464 22.2835 1.82362C22.0694 1.65463 22.2873 1.4409 22.5486 1.22268C22.0029 1.29546 21.5096 1.42099 21.0639 1.59384C20.8257 1.37883 21.2185 1.16371 21.4086 0.9487C20.5654 1.10859 20.2081 1.33345 19.853 1.55852C19.5954 1.31162 19.8384 1.10174 20.0122 0.886841C19.3763 1.12229 19.0488 1.42635 18.7041 1.72644C18.5871 1.56869 18.4071 1.45299 18.6245 1.07242C18.1732 1.33259 17.8332 1.63922 17.5817 1.98276C17.3023 1.80489 17.4152 1.56162 17.4137 1.33752C16.9446 1.71916 16.6468 2.12521 16.2824 2.52184C16.209 2.46833 16.1448 2.28714 16.0879 2.00031C14.9688 3.08617 13.3873 5.82116 15.6815 6.90552C17.6328 5.29482 19.9645 4.12451 22.5487 3.24649H22.5483Z" fill="#75A928"/>
<path d="M17.7587 25.3574C17.7703 27.3837 15.9983 29.0349 13.801 29.0455C11.6036 29.0562 9.81287 27.4223 9.80132 25.396C9.80121 25.3832 9.80121 25.3703 9.80132 25.3574C9.78976 23.3312 11.5616 21.68 13.759 21.6693C15.9564 21.6586 17.7471 23.2925 17.7587 25.3188V25.3574ZM11.4778 14.8767C13.1264 15.9569 13.4236 18.4052 12.1416 20.3451C10.8596 22.2851 8.48386 22.9822 6.83527 21.9021C5.18668 20.822 4.88958 18.3737 6.17151 16.4338C7.45354 14.4938 9.82925 13.7966 11.4778 14.8767ZM15.9274 14.6812C14.279 15.7612 13.9818 18.2096 15.2637 20.1495C16.5457 22.0895 18.9214 22.7867 20.57 21.7065C22.2186 20.6264 22.5158 18.1782 21.2338 16.2381C19.9518 14.2982 17.5761 13.6011 15.9274 14.6812ZM3.23832 16.6426C5.01822 16.1655 3.83925 24.0061 2.39101 23.3628C0.797968 22.0815 0.284897 18.3292 3.23832 16.6426ZM23.8077 16.5449C22.0276 16.0679 23.2067 23.9088 24.655 23.2655C26.248 21.9841 26.7611 18.2313 23.8077 16.5449ZM17.7601 10.706C20.8318 10.1874 23.3877 12.0123 23.2846 15.3431C23.1835 16.6201 16.6284 10.8962 17.7601 10.706ZM9.27315 10.6083C6.20126 10.0895 3.64554 11.9149 3.74871 15.2455C3.84974 16.5224 10.4049 10.7985 9.27315 10.6083ZM13.6855 9.83151C11.8522 9.78377 10.0927 11.1921 10.0885 12.009C10.0834 13.0015 11.538 14.0178 13.698 14.0436C15.9038 14.0594 17.3114 13.2301 17.3184 12.2058C17.3266 11.0453 15.3123 9.81363 13.6855 9.83151ZM13.7975 30.1852C15.3959 30.1154 17.5406 30.7 17.5449 31.4756C17.5714 32.2286 15.5997 33.9301 13.6915 33.8972C11.7152 33.9825 9.77734 32.2784 9.80271 31.6877C9.77306 30.8217 12.209 30.1455 13.7975 30.1852ZM7.89362 25.5891C9.0316 26.9601 9.55045 29.3687 8.60073 30.0788C7.70226 30.6209 5.52038 30.3977 3.96961 28.1698C2.92367 26.3003 3.05841 24.3979 3.7928 23.8391C4.89097 23.1702 6.58772 24.0738 7.89373 25.5891H7.89362ZM19.4736 25.1545C18.2423 26.5966 17.5567 29.227 18.4548 30.0742C19.3137 30.7324 21.6192 30.6404 23.3221 28.2774C24.5587 26.6904 24.1444 24.0399 23.438 23.3362C22.3888 22.5246 20.8824 23.5633 19.4736 25.1541V25.1545Z" fill="#BC1142"/>
</g>
<defs>
<clipPath id="clip0_447_16">
<rect width="27.398" height="35" fill="white"/>
</clipPath>
</defs>
</svg>
