<svg width="36" height="35" viewBox="0 0 36 35" fill="none" xmlns="http://www.w3.org/2000/svg">
<g clip-path="url(#clip0_354_110)">
<path d="M1.01854 12.5115C1.01854 12.5115 0.174828 11.9033 1.18728 11.0913L3.54616 8.98199C3.54616 8.98199 4.22113 8.27187 4.93477 8.89059L26.7026 25.3711V33.2739C26.7026 33.2739 26.692 34.5148 25.0995 34.3777L1.01854 12.5115Z" fill="#2489CA"/>
<path d="M6.62938 17.6055L1.01869 22.7064C1.01869 22.7064 0.442153 23.1353 1.01869 23.9017L3.62365 26.2711C3.62365 26.2711 4.24237 26.9355 5.1564 26.1797L11.1046 21.6694L6.62938 17.6055Z" fill="#1070B3"/>
<path d="M16.4796 17.6477L26.7694 9.79061L26.7026 1.93002C26.7026 1.93002 26.2632 0.214476 24.7972 1.1074L11.1045 13.5697L16.4796 17.6477Z" fill="#0877B9"/>
<path d="M25.0994 34.3883C25.6971 35 26.4213 34.7996 26.4213 34.7996L34.44 30.8483C35.4666 30.1487 35.3224 29.2804 35.3224 29.2804V5.68454C35.3224 4.64748 34.2608 4.2889 34.2608 4.2889L27.3107 0.938663C25.792 3.29122e-05 24.7971 1.10741 24.7971 1.10741C24.7971 1.10741 26.0767 0.186353 26.7025 1.93002V33.1298C26.7025 33.3442 26.6568 33.5552 26.5654 33.745C26.3826 34.1141 25.9853 34.4586 25.0327 34.3145L25.0994 34.3883Z" fill="#3C99D4"/>
</g>
<defs>
<clipPath id="clip0_354_110">
<rect width="35.6415" height="35" fill="white"/>
</clipPath>
</defs>
</svg>
